<svg xmlns="http://www.w3.org/2000/svg" viewBox="0 0 36 32"><defs><style>.cls-1,.cls-2{fill:#243858;}.cls-1{opacity:0.5;}</style></defs><title>admin-download</title><g id="Layer_2" data-name="Layer 2"><g id="N700"><path class="cls-1" d="M9.38,21.91H6.26S0,22,0,16A5.87,5.87,0,0,1,7.08,10.3a10.94,10.94,0,0,1,20.82-4A7.81,7.81,0,0,1,36,14.09a7.23,7.23,0,0,1-3.52,6.5,9.37,9.37,0,0,1-5,1.32H9.38Z"/><path class="cls-2" d="M23.62,25a1,1,0,0,0-1.41,0L19,28.18V14.23a1,1,0,0,0-2,0V28.18L13.8,25a1,1,0,0,0-1.41,1.41l4.91,4.91h0L18,32l.71-.71h0l4.91-4.91A1,1,0,0,0,23.62,25Z"/></g></g></svg>