<svg xmlns="http://www.w3.org/2000/svg" xmlns:xlink="http://www.w3.org/1999/xlink" viewBox="0 0 244.1 204.54"><defs><style>.cls-1,.cls-10{fill:#ebecf0;}.cls-16,.cls-2{fill:none;}.cls-3{isolation:isolate;}.cls-4{fill:url(#linear-gradient);}.cls-10,.cls-13,.cls-5,.cls-9{mix-blend-mode:multiply;}.cls-5{fill:url(#linear-gradient-2);}.cls-6{fill:#253858;}.cls-7{fill:#a5adba;}.cls-8{fill:#0065ff;}.cls-11{clip-path:url(#clip-path);}.cls-12{fill:#42526e;}.cls-13{fill:#c1c7d0;}.cls-14{fill:url(#linear-gradient-3);}.cls-15{clip-path:url(#clip-path-2);}.cls-16{stroke-miterlimit:10;stroke-width:9.92px;stroke:url(#linear-gradient-4);}.cls-17{fill:url(#linear-gradient-5);}.cls-18{fill:url(#linear-gradient-6);}.cls-19{fill:url(#linear-gradient-7);}.cls-20{fill:#79f2c0;}</style><linearGradient id="linear-gradient" x1="14.8" y1="-13.34" x2="229.01" y2="200.88" gradientTransform="matrix(1, 0, 0, -1, 0, 206)" gradientUnits="userSpaceOnUse"><stop offset="0" stop-color="#c1c7d0"/><stop offset="1" stop-color="#fafbfc"/></linearGradient><linearGradient id="linear-gradient-2" x1="0.29" y1="145.69" x2="244.1" y2="145.69" gradientTransform="matrix(1, 0, 0, -1, 0, 206)" gradientUnits="userSpaceOnUse"><stop offset="0" stop-color="#ebecf0" stop-opacity="0.1"/><stop offset="1" stop-color="#ebecf0"/></linearGradient><clipPath id="clip-path"><path class="cls-1" d="M146.87,112.43a11.25,11.25,0,0,1-11.24,11.25A24.38,24.38,0,0,0,111.3,148v7.55a6.54,6.54,0,0,0,13.08,0V148a11.25,11.25,0,0,1,11.25-11.24A24.4,24.4,0,0,0,160,112.43Z"/></clipPath><linearGradient id="linear-gradient-3" x1="114.98" y1="73.29" x2="163.63" y2="73.29" gradientTransform="matrix(1, 0, 0, -1, 0, 206)" gradientUnits="userSpaceOnUse"><stop offset="0" stop-color="#36b37e"/><stop offset="1" stop-color="#79f2c0"/></linearGradient><clipPath id="clip-path-2"><path class="cls-2" d="M150.55,108a11.26,11.26,0,0,1-11.24,11.25A24.38,24.38,0,0,0,115,143.55v7.55a6.54,6.54,0,0,0,13.08,0v-7.55a11.27,11.27,0,0,1,11.25-11.25A24.38,24.38,0,0,0,163.63,108Z"/></clipPath><linearGradient id="linear-gradient-4" x1="141.18" y1="104.73" x2="173" y2="104.73" gradientTransform="matrix(1, 0, 0, -1, 0, 206)" gradientUnits="userSpaceOnUse"><stop offset="0" stop-color="#00875a"/><stop offset="0.67" stop-color="#57d9a3"/></linearGradient><linearGradient id="linear-gradient-5" x1="1077.69" y1="373.85" x2="1078.27" y2="373.85" gradientTransform="translate(-90203.31 -31219.99) scale(83.81)" xlink:href="#linear-gradient-3"/><linearGradient id="linear-gradient-6" x1="1067.62" y1="374.06" x2="1068.04" y2="373.64" gradientTransform="translate(-58368.86 -20381.32) scale(54.81)" gradientUnits="userSpaceOnUse"><stop offset="0" stop-color="#57d9a3"/><stop offset="0.33" stop-color="#57d9a3"/><stop offset="1" stop-color="#00875a"/></linearGradient><linearGradient id="linear-gradient-7" x1="106.74" y1="34.65" x2="161.95" y2="89.86" xlink:href="#linear-gradient-3"/></defs><title>Artboard 1</title><g class="cls-3"><g id="Layer_1" data-name="Layer 1"><rect id="_Rectangle_" data-name=" Rectangle " class="cls-4" y="19.92" width="243.81" height="184.62"/><rect class="cls-1" y="19.92" width="243.81" height="19.67"/><path class="cls-5" d="M244.1,56.68c-69.18-6-108.85.91-132.52,8.71-4.66,1.53-10.66,3.75-20.52,6.35C55.43,81.15,22.46,81.68.29,80.67V39.59H244.1Z"/><circle class="cls-6" cx="15.69" cy="29.69" r="5.11"/><circle class="cls-7" cx="32.37" cy="29.69" r="5.11"/><circle class="cls-8" cx="49.05" cy="29.69" r="5.11"/><g id="Layer_2" data-name="Layer 2" class="cls-9"><g id="Software"><path id="_Clipping_Path_2" data-name=" Clipping Path 2" class="cls-1" d="M88.8,112.43A11.26,11.26,0,0,0,100,123.68,24.38,24.38,0,0,1,124.35,148v7.55a6.54,6.54,0,0,1-13.08,0V148A11.25,11.25,0,0,0,100,136.76,24.39,24.39,0,0,1,75.7,112.43Z"/><path class="cls-1" d="M82.26,117.39a15.91,15.91,0,1,1,15.91-15.91A15.93,15.93,0,0,1,82.26,117.39Zm0-21.9a6,6,0,1,0,6,6A6,6,0,0,0,82.26,95.49Z"/><rect id="_Path_" data-name=" Path " class="cls-1" x="111.29" y="87.14" width="13.08" height="60.87"/><path class="cls-10" d="M114.08,130.57a24.72,24.72,0,0,0-2.79,7.08V148h13.08v-1.48l-.2-.8a11.13,11.13,0,0,1,.2-6.34V121A24.12,24.12,0,0,0,114.08,130.57Z"/><path class="cls-1" d="M117.84,95.51A15.91,15.91,0,1,1,133.75,79.6,15.93,15.93,0,0,1,117.84,95.51Zm0-21.9a6,6,0,1,0,6,6A6,6,0,0,0,117.84,73.61Z"/><path id="_Clipping_Path_3" data-name=" Clipping Path 3" class="cls-1" d="M146.87,112.43a11.25,11.25,0,0,1-11.24,11.25A24.38,24.38,0,0,0,111.3,148v7.55a6.54,6.54,0,0,0,13.08,0V148a11.25,11.25,0,0,1,11.25-11.24A24.4,24.4,0,0,0,160,112.43Z"/><path class="cls-1" d="M146.87,112.43a11.25,11.25,0,0,1-11.24,11.25A24.38,24.38,0,0,0,111.3,148v7.55a6.54,6.54,0,0,0,13.08,0V148a11.25,11.25,0,0,1,11.25-11.24A24.4,24.4,0,0,0,160,112.43Z"/><g class="cls-11"><circle class="cls-1" cx="153.41" cy="105.72" r="10.95"/></g><path class="cls-1" d="M158.47,120.81a24.23,24.23,0,0,0,1.49-8.38H146.87a11.12,11.12,0,0,1-2.14,6.6,15.88,15.88,0,0,0,13.76,1.77Z"/><path class="cls-1" d="M158.47,120.81a24.23,24.23,0,0,0,1.49-8.38H146.87a11.12,11.12,0,0,1-2.14,6.6,15.88,15.88,0,0,0,13.76,1.77Z"/><path class="cls-1" d="M153.44,121.63a15.87,15.87,0,0,1-8.71-2.6,11.24,11.24,0,0,1-9.09,4.65A24.37,24.37,0,0,0,111.32,148v5.59a15.91,15.91,0,1,0,13.08,0V148a11.24,11.24,0,0,1,11.24-11.24,24.39,24.39,0,0,0,22.85-15.95A16,16,0,0,1,153.44,121.63Zm-35.6,52.45a6,6,0,1,1,6-6A6,6,0,0,1,117.84,174.08Z"/><path class="cls-1" d="M153.41,117.39a15.91,15.91,0,1,1,15.91-15.91A15.93,15.93,0,0,1,153.41,117.39Zm0-21.9a6,6,0,1,0,6,6A6,6,0,0,0,153.41,95.49Z"/></g></g><g id="Layer_2-2" data-name="Layer 2"><g id="Software-2" data-name="Software"><path id="_Clipping_Path_2-2" data-name=" Clipping Path 2" class="cls-12" d="M92.48,108a11.26,11.26,0,0,0,11.22,11.25A24.39,24.39,0,0,1,128,143.55v7.55a6.54,6.54,0,0,1-13.08,0v-7.55A11.27,11.27,0,0,0,103.7,132.3,24.39,24.39,0,0,1,79.37,108Z"/><path class="cls-12" d="M85.94,112.94A15.92,15.92,0,1,1,101.85,97,15.94,15.94,0,0,1,85.94,112.94Zm0-21.91a6,6,0,1,0,6,6A6,6,0,0,0,85.94,91Z"/><rect id="_Path_2" data-name=" Path " class="cls-8" x="114.97" y="82.68" width="13.08" height="60.87"/><path class="cls-13" d="M117.76,126.12a24.66,24.66,0,0,0-2.79,7.07v10.36h13.08v-1.49l-.21-.79a11.25,11.25,0,0,1,.21-6.35V116.57A24.21,24.21,0,0,0,117.76,126.12Z"/><path class="cls-8" d="M121.52,91.06a15.92,15.92,0,1,1,15.91-15.91A15.93,15.93,0,0,1,121.52,91.06Zm0-21.9a6,6,0,1,0,6,6A6,6,0,0,0,121.52,69.16Z"/><path id="_Clipping_Path_3-2" data-name=" Clipping Path 3" class="cls-14" d="M150.55,108a11.26,11.26,0,0,1-11.24,11.25A24.38,24.38,0,0,0,115,143.55v7.55a6.54,6.54,0,0,0,13.08,0v-7.55a11.27,11.27,0,0,1,11.25-11.25A24.38,24.38,0,0,0,163.63,108Z"/><g class="cls-15"><circle class="cls-16" cx="157.09" cy="101.27" r="10.95"/></g><path class="cls-17" d="M162.15,116.35a24.18,24.18,0,0,0,1.48-8.38H150.55a11.13,11.13,0,0,1-2.14,6.61,15.91,15.91,0,0,0,13.76,1.77Z"/><path class="cls-18" d="M162.15,116.35a24.18,24.18,0,0,0,1.48-8.38H150.55a11.13,11.13,0,0,1-2.14,6.61,15.91,15.91,0,0,0,13.76,1.77Z"/><path class="cls-19" d="M157.12,117.18a15.93,15.93,0,0,1-8.71-2.6,11.23,11.23,0,0,1-9.09,4.64A24.38,24.38,0,0,0,115,143.55v5.58a15.9,15.9,0,1,0,13.08,0v-5.58a11.25,11.25,0,0,1,11.24-11.25,24.37,24.37,0,0,0,22.84-16A15.71,15.71,0,0,1,157.12,117.18Zm-35.6,52.44a6,6,0,1,1,6-6A6,6,0,0,1,121.52,169.62Z"/><path class="cls-20" d="M157.09,112.94A15.92,15.92,0,1,1,173,97,15.93,15.93,0,0,1,157.09,112.94Zm0-21.91a6,6,0,1,0,6,6A6,6,0,0,0,157.09,91Z"/></g></g></g></g></svg>