<svg xmlns="http://www.w3.org/2000/svg" viewBox="0 0 36 34.5"><defs><style>.cls-1,.cls-2{fill:#243858;}.cls-2{opacity:0.5;}</style></defs><title>organize-org chart</title><g id="Layer_2" data-name="Layer 2"><g id="N700"><path class="cls-1" d="M29.25,7.5H6.75A.75.75,0,0,1,6,6.75v-6A.75.75,0,0,1,6.75,0h22.5A.75.75,0,0,1,30,.75v6A.75.75,0,0,1,29.25,7.5Z"/><path class="cls-1" d="M21.75,34.5h-7.5a.75.75,0,0,1-.75-.75v-7.5a.75.75,0,0,1,.75-.75h7.5a.75.75,0,0,1,.75.75v7.5A.75.75,0,0,1,21.75,34.5Z"/><path class="cls-1" d="M8.25,34.5H.75A.75.75,0,0,1,0,33.75v-7.5a.75.75,0,0,1,.75-.75h7.5a.75.75,0,0,1,.75.75v7.5A.75.75,0,0,1,8.25,34.5Z"/><path class="cls-1" d="M35.25,34.5h-7.5a.75.75,0,0,1-.75-.75v-7.5a.75.75,0,0,1,.75-.75h7.5a.75.75,0,0,1,.75.75v7.5A.75.75,0,0,1,35.25,34.5Z"/><path class="cls-2" d="M28.75,16.25H19V6.75H17v9.5H7.25a3,3,0,0,0-3,3V27.4h2V19.25a1,1,0,0,1,1-1H17v9.5h2v-9.5h9.75a1,1,0,0,1,1,1v8.5h2v-8.5A3,3,0,0,0,28.75,16.25Z"/></g></g></svg>