<?xml version="1.0" encoding="utf-8"?>
<!-- Generator: Adobe Illustrator 21.1.0, SVG Export Plug-In . SVG Version: 6.00 Build 0)  -->
<svg version="1.1" id="Layer_1" xmlns="http://www.w3.org/2000/svg" xmlns:xlink="http://www.w3.org/1999/xlink" x="0px" y="0px"
	 viewBox="0 0 29.2 36" style="enable-background:new 0 0 29.2 36;" xml:space="preserve">
<style type="text/css">
	.st0{fill:#243858;}
</style>
<title>organize-page tree</title>
<g id="Layer_2">
	<g id="N700">
		<g>
			<rect x="6.1" y="21.8" class="st0" width="2" height="1.6"/>
			<rect x="9.1" y="21.8" class="st0" width="2" height="1.6"/>
			<rect x="6.1" y="12.6" class="st0" width="2" height="1.6"/>
			<rect x="9.1" y="12.6" class="st0" width="2" height="1.6"/>
			<path class="st0" d="M4.9,21.5H3.2v1.1c0,0.5,0.4,0.8,0.8,0.8h1.1v-1.6H4.9V21.5z"/>
			<path class="st0" d="M5.2,14.3v-1.6H4c-0.5,0-0.8,0.4-0.8,0.8v1.1h1.6v-0.3H5.2z"/>
			<path class="st0" d="M12.4,14.6H14v-1.1c0-0.5-0.4-0.8-0.8-0.8h-1.1v1.6h0.3V14.6z"/>
			<path class="st0" d="M12.1,21.8v1.6h1.1c0.5,0,0.8-0.4,0.8-0.8v-1.1h-1.6v0.3H12.1z"/>
			<rect x="3.2" y="18.4" class="st0" width="1.6" height="2.2"/>
			<rect x="3.2" y="15.5" class="st0" width="1.6" height="2.2"/>
			<rect x="12.4" y="15.5" class="st0" width="1.6" height="2.2"/>
			<rect x="12.4" y="18.4" class="st0" width="1.6" height="2.2"/>
		</g>
		<g>
			<rect x="6.1" y="9.3" class="st0" width="2" height="1.6"/>
			<rect x="9.1" y="9.3" class="st0" width="2" height="1.6"/>
			<rect x="6.1" y="0.1" class="st0" width="2" height="1.6"/>
			<rect x="9.1" y="0.1" class="st0" width="2" height="1.6"/>
			<path class="st0" d="M4.9,9H3.2v1.1C3.2,10.6,3.6,11,4,11h1.1V9.3H4.9V9z"/>
			<path class="st0" d="M5.2,1.8V0.1H4c-0.5,0-0.8,0.4-0.8,0.8v1.1h1.6V1.8H5.2z"/>
			<path class="st0" d="M12.4,2.1H14V0.9c0-0.5-0.4-0.8-0.8-0.8h-1.1v1.6h0.3V2.1z"/>
			<path class="st0" d="M12.1,9.3V11h1.1c0.5,0,0.8-0.4,0.8-0.8V9h-1.6v0.3H12.1z"/>
			<rect x="3.2" y="5.9" class="st0" width="1.6" height="2.2"/>
			<rect x="3.2" y="3" class="st0" width="1.6" height="2.2"/>
			<rect x="12.4" y="3" class="st0" width="1.6" height="2.2"/>
			<rect x="12.4" y="5.9" class="st0" width="1.6" height="2.2"/>
		</g>
		<rect x="3.2" y="25.2" class="st0" width="10.8" height="10.8"/>
		<path class="st0" d="M20.1,15.9c-0.5,0.3-1.1,0.1-1.4-0.3c-0.1-0.2-0.1-0.3-0.1-0.5l0.2-7.6c0-0.6,0.5-1,1-1c0.1,0,0.2,0,0.3,0
			l7.2,2.2c0.5,0.2,0.8,0.7,0.7,1.3c-0.2,0.5-0.7,0.8-1.3,0.7l-5.9-1.8l-0.2,6.2C20.6,15.4,20.4,15.7,20.1,15.9z"/>
		<path class="st0" d="M20.4,29.3c-0.4,0.3-1.1,0.3-1.4-0.2c-0.3-0.4-0.3-1.1,0.2-1.4c2.6-2.5,4-6,3.9-9.7c0-3.6-1.5-7.1-4.1-9.7
			c-0.4-0.4-0.4-1,0-1.4c0.4-0.4,1-0.4,1.4,0c2.9,3,4.6,6.9,4.6,11.1c0.1,4.2-1.6,8.2-4.5,11.1C20.5,29.2,20.4,29.2,20.4,29.3z"/>
	</g>
</g>
</svg>
