<svg xmlns="http://www.w3.org/2000/svg" viewBox="0 0 36 35.2"><defs><style>.cls-1{fill:#243858;}</style></defs><title>status-cycle</title><g id="Layer_2" data-name="Layer 2"><g id="N700"><path class="cls-1" d="M26,22.51A1,1,0,0,1,25.13,21l4-6.42a1,1,0,0,1,1.59-.14L35.75,20a1,1,0,1,1-1.49,1.34L30.1,16.75,26.83,22A1,1,0,0,1,26,22.51Z"/><path class="cls-1" d="M19.46,34.12a1,1,0,0,1-.24-2,13.29,13.29,0,0,0,8.3-6.31A13.94,13.94,0,0,0,28.95,15.4a1,1,0,0,1,1.94-.49,15.93,15.93,0,0,1-1.64,11.93,15.28,15.28,0,0,1-9.54,7.25A1,1,0,0,1,19.46,34.12Z"/><path class="cls-1" d="M13.66,9.75h-.1L6,9a1,1,0,0,1-.83-1.37L8,.63a1,1,0,0,1,1.86.75L7.57,7.14l6.19.62a1,1,0,0,1-.1,2Z"/><path class="cls-1" d="M26.95,10.51a1,1,0,0,1-.76-.35,13.32,13.32,0,0,0-9.34-4.69,13.94,13.94,0,0,0-10,3.29A1,1,0,1,1,5.52,7.23,16,16,0,0,1,17,3.47,15.31,15.31,0,0,1,27.71,8.87a1,1,0,0,1-.76,1.65Z"/><path class="cls-1" d="M3.55,35.2a1,1,0,0,1-.14-2l6.15-.9L7,26.66a1,1,0,1,1,1.82-.83l3.15,6.87a1,1,0,0,1-.76,1.41L3.7,35.19Z"/><path class="cls-1" d="M10.92,34a1,1,0,0,1-.33-.06,15.82,15.82,0,0,1-9-8A15.34,15.34,0,0,1,.89,14a1,1,0,1,1,1.89.67A13.36,13.36,0,0,0,3.4,25.12a13.83,13.83,0,0,0,7.86,7A1,1,0,0,1,10.92,34Z"/></g></g></svg>